<?xml version="1.0" encoding="utf-8" standalone="no"?>
<!DOCTYPE svg PUBLIC "-//W3C//DTD SVG 1.1//EN"
  "http://www.w3.org/Graphics/SVG/1.1/DTD/svg11.dtd">
<svg xmlns:xlink="http://www.w3.org/1999/xlink" width="1008pt" height="468pt" viewBox="0 0 1008 468" xmlns="http://www.w3.org/2000/svg" version="1.1">
 <title>Dense SAM versus FSD-SAM end-to-end inference time</title>
 <metadata>
  <rdf:RDF xmlns:dc="http://purl.org/dc/elements/1.1/" xmlns:cc="http://creativecommons.org/ns#" xmlns:rdf="http://www.w3.org/1999/02/22-rdf-syntax-ns#">
   <cc:Work>
    <dc:type rdf:resource="http://purl.org/dc/dcmitype/StillImage"/>
    <dc:title>Dense SAM versus FSD-SAM end-to-end inference time</dc:title>
    <dc:description>Paper Table 7; data: site/paper-everything.json; COCO100 development subset.</dc:description>
    <dc:format>image/svg+xml</dc:format>
    <dc:creator>
     <cc:Agent>
      <dc:title>Matplotlib v3.7.2, https://matplotlib.org/</dc:title>
     </cc:Agent>
    </dc:creator>
   </cc:Work>
  </rdf:RDF>
 </metadata>
 <defs>
  <style type="text/css">*{stroke-linejoin: round; stroke-linecap: butt}</style>
 </defs>
 <g id="figure_1">
  <g id="patch_1">
   <path d="M 0 468 
L 1008 468 
L 1008 0 
L 0 0 
z
" style="fill: #ffffff"/>
  </g>
  <g id="axes_1">
   <g id="patch_2">
    <path d="M 171.36 341.64 
L 735.84 341.64 
L 735.84 107.64 
L 171.36 107.64 
z
" style="fill: #ffffff"/>
   </g>
   <g id="patch_3">
    <path d="M 171.36 116.415 
L 171.36 186.615 
L 735.84 186.615 
L 735.84 116.415 
z
" clip-path="url(#pd95fbef8e8)" style="fill: #f7f3ff; stroke: #f7f3ff; stroke-linejoin: miter"/>
   </g>
   <g id="matplotlib.axis_1">
    <g id="xtick_1">
     <g id="line2d_1">
      <path d="M 171.36 341.64 
L 171.36 107.64 
" clip-path="url(#pd95fbef8e8)" style="fill: none; stroke: #e9ebf2; stroke-width: 0.8; stroke-linecap: square"/>
     </g>
     <g id="line2d_2"/>
     <g id="text_1">
      <text style="fill: #737887; font: 11px 'DejaVu Sans'; text-anchor: middle" x="171.36" y="357.998281" transform="rotate(-0 171.36 357.998281)">0</text>
     </g>
    </g>
    <g id="xtick_2">
     <g id="line2d_3">
      <path d="M 332.64 341.64 
L 332.64 107.64 
" clip-path="url(#pd95fbef8e8)" style="fill: none; stroke: #e9ebf2; stroke-width: 0.8; stroke-linecap: square"/>
     </g>
     <g id="line2d_4"/>
     <g id="text_2">
      <text style="fill: #737887; font: 11px 'DejaVu Sans'; text-anchor: middle" x="332.64" y="357.998281" transform="rotate(-0 332.64 357.998281)">2000</text>
     </g>
    </g>
    <g id="xtick_3">
     <g id="line2d_5">
      <path d="M 493.92 341.64 
L 493.92 107.64 
" clip-path="url(#pd95fbef8e8)" style="fill: none; stroke: #e9ebf2; stroke-width: 0.8; stroke-linecap: square"/>
     </g>
     <g id="line2d_6"/>
     <g id="text_3">
      <text style="fill: #737887; font: 11px 'DejaVu Sans'; text-anchor: middle" x="493.92" y="357.998281" transform="rotate(-0 493.92 357.998281)">4000</text>
     </g>
    </g>
    <g id="xtick_4">
     <g id="line2d_7">
      <path d="M 655.2 341.64 
L 655.2 107.64 
" clip-path="url(#pd95fbef8e8)" style="fill: none; stroke: #e9ebf2; stroke-width: 0.8; stroke-linecap: square"/>
     </g>
     <g id="line2d_8"/>
     <g id="text_4">
      <text style="fill: #737887; font: 11px 'DejaVu Sans'; text-anchor: middle" x="655.2" y="357.998281" transform="rotate(-0 655.2 357.998281)">6000</text>
     </g>
    </g>
    <g id="text_5">
     <text style="fill: #737887; font: 12px 'DejaVu Sans'; text-anchor: middle" x="453.6" y="379.404063" transform="rotate(-0 453.6 379.404063)">Mean end-to-end time (ms/image)</text>
    </g>
   </g>
   <g id="matplotlib.axis_2"/>
   <g id="patch_4">
    <path d="M 171.36 127.749375 
L 660.60288 127.749375 
L 660.60288 147.493125 
L 171.36 147.493125 
z
" clip-path="url(#pd95fbef8e8)" style="fill: #c5cad6"/>
   </g>
   <g id="patch_5">
    <path d="M 171.36 155.536875 
L 416.74752 155.536875 
L 416.74752 175.280625 
L 171.36 175.280625 
z
" clip-path="url(#pd95fbef8e8)" style="fill: #7860de"/>
   </g>
   <g id="patch_6">
    <path d="M 171.36 200.874375 
L 447.39072 200.874375 
L 447.39072 220.618125 
L 171.36 220.618125 
z
" clip-path="url(#pd95fbef8e8)" style="fill: #c5cad6"/>
   </g>
   <g id="patch_7">
    <path d="M 171.36 228.661875 
L 274.09536 228.661875 
L 274.09536 248.405625 
L 171.36 248.405625 
z
" clip-path="url(#pd95fbef8e8)" style="fill: #7860de"/>
   </g>
   <g id="patch_8">
    <path d="M 171.36 273.999375 
L 475.53408 273.999375 
L 475.53408 293.743125 
L 171.36 293.743125 
z
" clip-path="url(#pd95fbef8e8)" style="fill: #c5cad6"/>
   </g>
   <g id="patch_9">
    <path d="M 171.36 301.786875 
L 280.224 301.786875 
L 280.224 321.530625 
L 171.36 321.530625 
z
" clip-path="url(#pd95fbef8e8)" style="fill: #7860de"/>
   </g>
   <g id="text_6">
    <text style="fill: #202333; font: 700 13px 'DejaVu Sans'; text-anchor: end" x="160.0704" y="155.102188" transform="rotate(-0 160.0704 155.102188)">SAM ViT-H</text>
   </g>
   <g id="text_7">
    <text style="fill: #737887; font: 12px 'DejaVu Sans'; text-anchor: start" x="666.24768" y="140.9325" transform="rotate(-0 666.24768 140.9325)">6,067 ms</text>
   </g>
   <g id="text_8">
    <text style="fill: #7860de; font: 700 12px 'DejaVu Sans'; text-anchor: start" x="422.39232" y="168.72" transform="rotate(-0 422.39232 168.72)">3,043 ms</text>
   </g>
   <g id="text_9">
    <text style="fill: #202333; font: 13px 'DejaVu Sans'; text-anchor: end" x="160.0704" y="228.227187" transform="rotate(-0 160.0704 228.227187)">TinySAM</text>
   </g>
   <g id="text_10">
    <text style="fill: #737887; font: 12px 'DejaVu Sans'; text-anchor: start" x="453.03552" y="214.0575" transform="rotate(-0 453.03552 214.0575)">3,423 ms</text>
   </g>
   <g id="text_11">
    <text style="fill: #7860de; font: 700 12px 'DejaVu Sans'; text-anchor: start" x="279.74016" y="241.845" transform="rotate(-0 279.74016 241.845)">1,274 ms</text>
   </g>
   <g id="text_12">
    <text style="fill: #202333; font: 13px 'DejaVu Sans'; text-anchor: end" x="160.0704" y="301.352188" transform="rotate(-0 160.0704 301.352188)">EdgeSAM</text>
   </g>
   <g id="text_13">
    <text style="fill: #737887; font: 12px 'DejaVu Sans'; text-anchor: start" x="481.17888" y="287.1825" transform="rotate(-0 481.17888 287.1825)">3,772 ms</text>
   </g>
   <g id="text_14">
    <text style="fill: #7860de; font: 700 12px 'DejaVu Sans'; text-anchor: start" x="285.8688" y="314.97" transform="rotate(-0 285.8688 314.97)">1,350 ms</text>
   </g>
  </g>
  <g id="text_15">
   <text style="fill: #202333; font: 700 24px 'DejaVu Sans'; text-anchor: start" x="35.28" y="28.08" transform="rotate(-0 35.28 28.08)">Segment Everything inference time</text>
  </g>
  <g id="text_16">
   <text style="fill: #737887; font: 13px 'DejaVu Sans'; text-anchor: start" x="35.28" y="53.82" transform="rotate(-0 35.28 53.82)">Dense SAM vs FSD-SAM · same frozen backbone · lower is faster</text>
  </g>
  <g id="text_17">
   <text style="fill: #202333; font: 700 12px 'DejaVu Sans'; text-anchor: start" x="796.32" y="98.28" transform="rotate(-0 796.32 98.28)">Speedup</text>
  </g>
  <g id="text_18">
   <text style="fill: #202333; font: 700 12px 'DejaVu Sans'; text-anchor: middle" x="922.32" y="98.28" transform="rotate(-0 922.32 98.28)">Time saved</text>
  </g>
  <g id="text_19">
   <text style="fill: #7860de; font: 700 23px 'DejaVu Sans'; text-anchor: middle" x="821.52" y="157.861562" transform="rotate(-0 821.52 157.861562)">1.99×</text>
  </g>
  <g id="text_20">
   <text style="fill: #202333; font: 17px 'DejaVu Sans'; text-anchor: middle" x="922.32" y="156.205938" transform="rotate(-0 922.32 156.205938)">49.8%</text>
  </g>
  <g id="text_21">
   <text style="fill: #7860de; font: 700 23px 'DejaVu Sans'; text-anchor: middle" x="821.52" y="230.986562" transform="rotate(-0 821.52 230.986562)">2.69×</text>
  </g>
  <g id="text_22">
   <text style="fill: #202333; font: 17px 'DejaVu Sans'; text-anchor: middle" x="922.32" y="229.330937" transform="rotate(-0 922.32 229.330937)">62.8%</text>
  </g>
  <g id="text_23">
   <text style="fill: #7860de; font: 700 23px 'DejaVu Sans'; text-anchor: middle" x="821.52" y="304.111562" transform="rotate(-0 821.52 304.111562)">2.79×</text>
  </g>
  <g id="text_24">
   <text style="fill: #202333; font: 17px 'DejaVu Sans'; text-anchor: middle" x="922.32" y="302.455938" transform="rotate(-0 922.32 302.455938)">64.2%</text>
  </g>
  <g id="text_25">
   <text style="fill: #737887; font: 10.5px 'DejaVu Sans'; text-anchor: start" x="35.28" y="396.396" transform="rotate(-0 35.28 396.396)">Paper Table 7 · COCO100 development subset (100 images / 709 targets) · NVIDIA RTX 5060 Ti · FP32 · 32 × 32 grid · batch 64</text>
  </g>
  <g id="text_26">
   <text style="fill: #737887; font: 10.5px 'DejaVu Sans'; text-anchor: start" x="35.28" y="419.796" transform="rotate(-0 35.28 419.796)">CUDA-synchronized full generation, including image encoding and mask processing · 3 warm-ups · 3 timed repetitions per image</text>
  </g>
  <g id="text_27">
   <text style="fill: #737887; font: 10.5px 'DejaVu Sans'; text-anchor: start" x="35.28" y="443.196" transform="rotate(-0 35.28 443.196)">AR@300 change vs Dense: ViT-H −0.085 pp · TinySAM −0.465 pp · EdgeSAM −0.240 pp. Full policy comparisons: docs/results.md.</text>
  </g>
  <g id="legend_1">
   <g id="patch_10">
    <path d="M 169.104 98.158125 
L 182.904 98.158125 
L 182.904 89.758125 
L 169.104 89.758125 
z
" style="fill: #c5cad6"/>
   </g>
   <g id="text_28">
    <text style="fill: #202333; font: 12px 'DejaVu Sans'; text-anchor: start" x="192.504" y="98.158125" transform="rotate(-0 192.504 98.158125)">Dense SAM</text>
   </g>
   <g id="patch_11">
    <path d="M 284.587125 98.158125 
L 298.387125 98.158125 
L 298.387125 89.758125 
L 284.587125 89.758125 
z
" style="fill: #7860de"/>
   </g>
   <g id="text_29">
    <text style="fill: #202333; font: 12px 'DejaVu Sans'; text-anchor: start" x="307.987125" y="98.158125" transform="rotate(-0 307.987125 98.158125)">FSD-SAM</text>
   </g>
  </g>
 </g>
 <defs>
  <clipPath id="pd95fbef8e8">
   <rect x="171.36" y="107.64" width="564.48" height="234"/>
  </clipPath>
 </defs>
</svg>
